<svg aria-hidden="true" style="position: absolute; width: 0; height: 0; overflow: hidden;" version="1.1" xmlns="http://www.w3.org/2000/svg" xmlns:xlink="http://www.w3.org/1999/xlink">
<defs>
<symbol id="watch" viewBox="0 0 32 32">
<path fill="#fff" style="fill: var(--color1, #fff)" d="M16 0c-8.822 0-16 7.177-16 16s7.177 16 16 16c8.822 0 16-7.178 16-16s-7.178-16-16-16zM26.846 25.94l-1.394-1.394c-0.25-0.25-0.655-0.25-0.905 0s-0.25 0.655 0 0.905l1.394 1.394c-2.474 2.27-5.724 3.704-9.3 3.858v-1.977c0-0.354-0.287-0.64-0.64-0.64s-0.64 0.287-0.64 0.64v1.977c-3.577-0.154-6.827-1.589-9.3-3.858l1.394-1.394c0.25-0.25 0.25-0.655 0-0.905s-0.655-0.25-0.905 0l-1.394 1.394c-2.27-2.474-3.705-5.724-3.858-9.3h1.978c0.353 0 0.64-0.287 0.64-0.64s-0.287-0.64-0.64-0.64h-1.978c0.154-3.577 1.589-6.827 3.858-9.3l1.394 1.394c0.125 0.125 0.289 0.188 0.453 0.188s0.327-0.062 0.452-0.188c0.25-0.25 0.25-0.655 0-0.905l-1.394-1.394c2.474-2.27 5.724-3.705 9.3-3.858v1.978c0 0.353 0.287 0.64 0.64 0.64s0.64-0.287 0.64-0.64v-1.978c3.577 0.154 6.826 1.589 9.3 3.858l-1.394 1.394c-0.25 0.25-0.25 0.655 0 0.905 0.125 0.125 0.289 0.188 0.453 0.188s0.328-0.062 0.453-0.188l1.394-1.394c2.27 2.474 3.704 5.724 3.858 9.3h-1.977c-0.354 0-0.64 0.287-0.64 0.64s0.287 0.64 0.64 0.64h1.977c-0.154 3.577-1.589 6.826-3.858 9.3z"></path>
<path fill="#fff" style="fill: var(--color1, #fff)" d="M16.638 13.864v-8.446c0-0.354-0.287-0.64-0.64-0.64s-0.64 0.287-0.64 0.64v8.448c-0.921 0.278-1.598 1.125-1.598 2.135 0 0.383 0.106 0.738 0.276 1.054l-4.245 4.251c-0.25 0.25-0.249 0.655 0.001 0.905 0.125 0.125 0.288 0.187 0.452 0.187s0.328-0.063 0.453-0.188l4.242-4.249c0.317 0.173 0.675 0.279 1.061 0.279 1.235 0 2.24-1.005 2.24-2.24 0-1.012-0.679-1.86-1.602-2.136zM16 16.96c-0.529 0-0.96-0.431-0.96-0.96s0.431-0.96 0.96-0.96 0.96 0.431 0.96 0.96-0.431 0.96-0.96 0.96z"></path>
</symbol>
<symbol id="shuffle-arrows" viewBox="0 0 32 32">
<path fill="#fff" style="fill: var(--color1, #fff)" d="M31.804 21.737l-3.774-3.775c-0.125-0.125-0.295-0.196-0.472-0.196h-0c-0.177 0-0.347 0.070-0.472 0.196l-1.26 1.26c-0.261 0.261-0.261 0.684 0 0.945l0.483 0.483h-4.982c-2.564 0-4.65-2.086-4.65-4.65s2.086-4.651 4.65-4.651h4.982l-0.483 0.484c-0.261 0.261-0.261 0.684 0 0.945l1.26 1.26c0.125 0.125 0.295 0.196 0.473 0.196s0.347-0.070 0.472-0.196l3.774-3.775c0.261-0.261 0.261-0.684 0-0.945l-3.774-3.775c-0.261-0.261-0.684-0.261-0.945 0l-1.26 1.26c-0.125 0.125-0.196 0.295-0.196 0.472s0.070 0.347 0.196 0.472l0.483 0.483h-4.982c-2.535 0-4.79 1.221-6.209 3.106-1.419-1.885-3.674-3.106-6.209-3.106h-8.24c-0.369 0-0.668 0.299-0.668 0.668v1.782c0 0.369 0.299 0.668 0.668 0.668h8.24c2.564 0 4.65 2.086 4.65 4.651s-2.086 4.65-4.65 4.65h-8.197c-0.369 0-0.668 0.299-0.668 0.668v1.782c0 0.369 0.299 0.668 0.668 0.668h8.197c2.535 0 4.79-1.221 6.209-3.105 1.419 1.884 3.674 3.105 6.209 3.105h4.982l-0.483 0.483c-0.125 0.125-0.196 0.295-0.196 0.473s0.070 0.347 0.196 0.472l1.26 1.26c0.125 0.125 0.295 0.196 0.473 0.196s0.347-0.070 0.472-0.196l3.774-3.775c0.261-0.261 0.261-0.684 0-0.945z"></path>
</symbol>
<symbol id="add-to-cart" viewBox="0 0 32 32">
<path fill="#fff" style="fill: var(--color1, #fff)" d="M31.12 6.072c-0.593-0.678-1.439-1.051-2.381-1.051h-7.112v-4.083c0-0.518-0.42-0.938-0.938-0.938h-5.021c-0.518 0-0.938 0.42-0.938 0.938v4.083h-8.77l-0.229-1.719c-0.247-1.852-1.536-3.302-2.935-3.302h-1.674c-0.518 0-0.938 0.42-0.938 0.938s0.42 0.938 0.938 0.938h1.674c0.301 0 0.938 0.636 1.076 1.675l2.684 20.127c0.118 0.887 0.574 1.718 1.283 2.339 0.526 0.461 1.148 0.767 1.799 0.895-0.265 0.488-0.416 1.047-0.416 1.641 0 1.901 1.547 3.448 3.448 3.448s3.448-1.547 3.448-3.448c0-0.566-0.138-1.101-0.381-1.573h4.913c-0.243 0.472-0.381 1.006-0.381 1.573 0 1.901 1.547 3.448 3.448 3.448s3.448-1.547 3.448-3.448c0-0.566-0.138-1.101-0.381-1.573h2.456c0.518 0 0.938-0.42 0.938-0.938s-0.42-0.938-0.938-0.938h-18.912c-0.916 0-1.792-0.767-1.913-1.675l-0.196-1.471h18.511c0.895 0 1.779-0.342 2.488-0.963s1.165-1.452 1.284-2.339l1.344-10.085c0.125-0.934-0.134-1.822-0.727-2.499zM14.246 28.552c0 0.867-0.706 1.573-1.573 1.573s-1.573-0.706-1.573-1.573c0-0.867 0.706-1.573 1.573-1.573s1.573 0.706 1.573 1.573zM25.292 28.552c0 0.867-0.706 1.573-1.573 1.573s-1.573-0.706-1.573-1.573c0-0.867 0.706-1.573 1.573-1.573s1.573 0.706 1.573 1.573zM16.607 1.875h3.146v4.072c0 0.004-0 0.007-0 0.011s0 0.007 0 0.011v5.010c0 0.518 0.42 0.938 0.938 0.938h0.331l-2.785 2.763-2.785-2.763h0.219c0.518 0 0.938-0.42 0.938-0.938zM29.989 8.323l-1.344 10.086c-0.121 0.908-0.997 1.675-1.913 1.675h-18.761l-1.758-13.188h8.52v3.146h-1.557c-0.38 0-0.722 0.229-0.867 0.58s-0.063 0.755 0.207 1.023l5.061 5.021c0.183 0.181 0.421 0.272 0.66 0.272s0.478-0.091 0.66-0.272l5.061-5.021c0.27-0.268 0.351-0.671 0.207-1.023s-0.487-0.58-0.867-0.58h-1.669v-3.146h7.112c0.394 0 0.738 0.146 0.97 0.411s0.331 0.626 0.279 1.016z"></path>
</symbol>
<symbol id="heart" viewBox="0 0 32 32">
<path fill="#fff" style="fill: var(--color1, #fff)" d="M16 30.22c-0.456 0-0.895-0.165-1.237-0.465-1.293-1.13-2.539-2.193-3.639-3.13l-0.006-0.005c-3.224-2.747-6.008-5.12-7.945-7.457-2.165-2.613-3.174-5.090-3.174-7.796 0-2.629 0.902-5.055 2.539-6.831 1.657-1.797 3.929-2.786 6.401-2.786 1.847 0 3.539 0.584 5.028 1.736 0.751 0.581 1.433 1.293 2.033 2.123 0.6-0.83 1.281-1.541 2.033-2.123 1.489-1.152 3.181-1.736 5.028-1.736 2.471 0 4.744 0.99 6.401 2.786 1.637 1.776 2.538 4.201 2.538 6.831 0 2.706-1.008 5.184-3.174 7.796-1.937 2.337-4.721 4.71-7.944 7.457-1.102 0.938-2.35 2.002-3.645 3.136-0.342 0.299-0.782 0.464-1.237 0.464zM8.939 3.624c-1.942 0-3.725 0.775-5.023 2.182-1.317 1.428-2.042 3.403-2.042 5.56 0 2.276 0.846 4.312 2.743 6.6 1.833 2.212 4.56 4.536 7.717 7.227l0.006 0.005c1.104 0.941 2.355 2.007 3.657 3.146 1.31-1.141 2.563-2.209 3.669-3.151 3.157-2.691 5.884-5.014 7.717-7.226 1.896-2.289 2.742-4.324 2.742-6.6 0-2.157-0.725-4.132-2.042-5.56-1.297-1.407-3.081-2.182-5.023-2.182-1.422 0-2.728 0.452-3.881 1.344-1.028 0.795-1.743 1.8-2.163 2.503-0.216 0.362-0.596 0.577-1.016 0.577s-0.801-0.216-1.016-0.577c-0.419-0.703-1.135-1.708-2.163-2.503-1.153-0.892-2.459-1.344-3.881-1.344z"></path>
</symbol>
</defs>
</svg>
