<svg height="457.14286pt" viewBox="0 0 457.14286 457.14286" width="457.14286pt" xmlns="http://www.w3.org/2000/svg"><path fill="#ffffff" d="m228.570312 0c-126.035156 0-228.570312 102.535156-228.570312 228.570312 0 126.035157 102.535156 228.574219 228.570312 228.574219 126.035157 0 228.574219-102.539062 228.574219-228.574219 0-126.035156-102.539062-228.570312-228.574219-228.570312zm154.9375 370.578125-19.917968-19.917969c-3.570313-3.570312-9.359375-3.570312-12.929688 0-3.570312 3.570313-3.570312 9.359375 0 12.929688l19.917969 19.917968c-35.34375 32.421876-81.769531 52.917969-132.863281 55.117188v-28.25c0-5.050781-4.09375-9.144531-9.144532-9.144531-5.046874 0-9.140624 4.09375-9.140624 9.144531v28.25c-51.097657-2.199219-97.523438-22.695312-132.863282-55.117188l19.914063-19.917968c3.574219-3.570313 3.574219-9.359375 0-12.929688-3.570313-3.570312-9.355469-3.570312-12.925781 0l-19.917969 19.917969c-32.421875-35.34375-52.921875-81.769531-55.121094-132.863281h28.253906c5.046875 0 9.140625-4.09375 9.140625-9.144532 0-5.046874-4.09375-9.140624-9.140625-9.140624h-28.253906c2.199219-51.097657 22.699219-97.523438 55.121094-132.863282l19.917969 19.914063c1.785156 1.789062 4.125 2.679687 6.464843 2.679687 2.335938 0 4.675781-.890625 6.460938-2.679687 3.574219-3.570313 3.574219-9.355469 0-12.925781l-19.914063-19.917969c35.339844-32.421875 81.765625-52.921875 132.863282-55.121094v28.253906c0 5.046875 4.09375 9.140625 9.140624 9.140625 5.050782 0 9.144532-4.09375 9.144532-9.140625v-28.253906c51.09375 2.199219 97.519531 22.699219 132.863281 55.121094l-19.917969 19.917969c-3.570312 3.570312-3.570312 9.355468 0 12.925781 1.785156 1.789062 4.125 2.679687 6.464844 2.679687s4.679688-.890625 6.464844-2.679687l19.917968-19.914063c32.421876 35.339844 52.917969 81.765625 55.117188 132.863282h-28.25c-5.050781 0-9.144531 4.09375-9.144531 9.140624 0 5.050782 4.09375 9.144532 9.144531 9.144532h28.25c-2.199219 51.09375-22.695312 97.519531-55.117188 132.863281zm0 0"/><path fill="#ffffff" d="m237.679688 198.050781v-120.65625c0-5.050781-4.09375-9.144531-9.144532-9.144531-5.046875 0-9.140625 4.09375-9.140625 9.144531v120.679688c-13.15625 3.976562-22.824219 16.066406-22.824219 30.496093 0 5.472657 1.507813 10.546876 3.9375 15.054688l-60.636718 60.726562c-3.566406 3.574219-3.5625 9.363282.007812 12.929688 1.785156 1.78125 4.121094 2.675781 6.460938 2.675781 2.34375 0 4.683594-.894531 6.46875-2.683593l60.605468-60.695313c4.535157 2.464844 9.644532 3.992187 15.15625 3.992187 17.644532 0 32-14.355468 32-32 0-14.457031-9.703124-26.566406-22.890624-30.519531zm-9.109376 44.234375c-7.5625 0-13.714843-6.152344-13.714843-13.714844s6.152343-13.714843 13.714843-13.714843 13.714844 6.152343 13.714844 13.714843-6.152344 13.714844-13.714844 13.714844zm0 0"/></svg>